# xmcd
#
# Track frame offsets:
#	150
#	14412
#	23682
#	35235
#	46930
#	58442
#	75227
#	86325
#	96860
#	109352
#	119985
#	135057
#
# Disc length: 1951 seconds
#
# Revision: 0
# Processed by: cddbd v1.4PL0 Copyright (c) Steve Scherf et al.
# Submitted via: audiograbber 1.81.01
#
DISCID=9a079d0c
DTITLE=Los Indios Tabajaras - I Grandi Successi <Originali cd1
DYEAR=1900
DGENRE=pop
TTITLE0=Maria Elena
TTITLE1=Angeli negri negros)(Angelitos 
TTITLE2=Alwaiys in my heart (Siempre en mi corazon)
TTITLE3=Lisboa antigua (Romantica città)
TTITLE4=El pasa
TTITLE5=Aranjuez, mon amur
TTITLE6=Voglio amarti così (Solamente una vez)
TTITLE7=Moonlight serenade
TTITLE8=Soleado
TTITLE9=Theme from "Love story"
TTITLE10=Senza catene (Unchained melody)
TTITLE11=Yesterday
EXTD=
EXTT0=
EXTT1=
EXTT2=
EXTT3=
EXTT4=
EXTT5=
EXTT6=
EXTT7=
EXTT8=
EXTT9=
EXTT10=
EXTT11=
PLAYORDER=
